<?xml version="1.0" encoding="utf-8"?>
<!-- Generator: Adobe Illustrator 25.1.0, SVG Export Plug-In . SVG Version: 6.00 Build 0)  -->
<svg version="1.1" id="Layer_1" xmlns:svgjs="http://svgjs.com/svgjs"
	 xmlns="http://www.w3.org/2000/svg" xmlns:xlink="http://www.w3.org/1999/xlink" x="0px" y="0px" viewBox="0 0 512 369.8"
	 style="enable-background:new 0 0 512 369.8;" xml:space="preserve">
<style type="text/css">
	.st0{fill:#F564A9;}
</style>
<g>
	<path class="st0" d="M490.7,206.2H21.3C9.6,206.2,0,196.7,0,184.9c0-11.8,9.6-21.3,21.3-21.3h469.3c11.8,0,21.3,9.6,21.3,21.3
		C512,196.7,502.4,206.2,490.7,206.2z"/>
	<path class="st0" d="M490.7,42.7H21.3C9.6,42.7,0,33.1,0,21.3S9.6,0,21.3,0h469.3C502.4,0,512,9.6,512,21.3S502.4,42.7,490.7,42.7z
		"/>
	<path class="st0" d="M490.7,369.8H21.3C9.6,369.8,0,360.2,0,348.4s9.6-21.3,21.3-21.3h469.3c11.8,0,21.3,9.6,21.3,21.3
		S502.4,369.8,490.7,369.8z"/>
</g>
</svg>
